inDegrees=no
num_controls=7
num_derivatives=13
num_iterations=86
num_multipliers=7
num_parameters=0
num_slacks=7
num_states=26
objective=0.333899
objective_accelerations=0.037530
objective_balance=0.001341
objective_effort=0.027412
objective_height=0.266143
objective_ligament=0.001473
solver_duration=901.520156
status=Solve_Succeeded
success=true
DataType=double
version=3
OpenSimVersion=4.5
endheader
time	/jointset/ground_pelvis/pelvis_tilt/value	/jointset/ground_pelvis/pelvis_tx/value	/jointset/ground_pelvis/pelvis_ty/value	/jointset/hip_r/hip_flexion_r/value	/jointset/hip_r/hip_adduction_r/value	/jointset/hip_r/hip_rotation_r/value	/jointset/back/lumbar_extension/value	/jointset/patellofemoral_r/patellar_flexion_r/value	/jointset/knee_r/knee_flexion_r/value	/jointset/knee_r/knee_adduction_r/value	/jointset/knee_r/knee_rotation_r/value	/jointset/ankle_r/ankle_angle_r/value	/jointset/subtalar_r/subtalar_angle_r/value	/jointset/ground_pelvis/pelvis_tilt/speed	/jointset/ground_pelvis/pelvis_tx/speed	/jointset/ground_pelvis/pelvis_ty/speed	/jointset/hip_r/hip_flexion_r/speed	/jointset/hip_r/hip_adduction_r/speed	/jointset/hip_r/hip_rotation_r/speed	/jointset/back/lumbar_extension/speed	/jointset/patellofemoral_r/patellar_flexion_r/speed	/jointset/knee_r/knee_flexion_r/speed	/jointset/knee_r/knee_adduction_r/speed	/jointset/knee_r/knee_rotation_r/speed	/jointset/ankle_r/ankle_angle_r/speed	/jointset/subtalar_r/subtalar_angle_r/speed	/forceset/tau_hip_flexion_r	/forceset/tau_hip_adduction_r	/forceset/tau_hip_rotation_r	/forceset/tau_knee_flexion_r	/forceset/tau_ankle_angle_r	/forceset/tau_subtalar_angle_r	/forceset/tau_lumbar_extension	lambda_cid13_p0	lambda_cid14_p0	lambda_cid14_p1	lambda_cid14_p2	lambda_cid14_p3	lambda_cid14_p4	lambda_cid14_p5	/jointset/ground_pelvis/pelvis_tilt/accel	/jointset/ground_pelvis/pelvis_tx/accel	/jointset/ground_pelvis/pelvis_ty/accel	/jointset/hip_r/hip_flexion_r/accel	/jointset/hip_r/hip_adduction_r/accel	/jointset/hip_r/hip_rotation_r/accel	/jointset/back/lumbar_extension/accel	/jointset/patellofemoral_r/patellar_flexion_r/accel	/jointset/knee_r/knee_flexion_r/accel	/jointset/knee_r/knee_adduction_r/accel	/jointset/knee_r/knee_rotation_r/accel	/jointset/ankle_r/ankle_angle_r/accel	/jointset/subtalar_r/subtalar_angle_r/accel	gamma_cid13_p0	gamma_cid14_p0	gamma_cid14_p1	gamma_cid14_p2	gamma_cid14_p3	gamma_cid14_p4	gamma_cid14_p5
1.5	-0.112591697119938	0.03746316830316896	0.8146181903014231	0.8373828785514282	-0.2268305574732872	-0.1205707397554686	-0.6260418184225501	0.9421564258435781	0.9421564258435682	-0.03591226061936238	0.1744059804665649	0.3075143252593724	0.1376677670398345	0.5250788522128191	0.2269163530387755	0.5173600463829363	-2.091130950808167	-0.000574729455927973	-0.1771440747888682	0.8029889504869452	-1.971162154365586	-1.97116215436556	0.495488940980103	0.0009852690764336177	-0.5241773603906883	-0.2096061689089952	-0.1747912489381543	0.01766740699522283	0.01767100617547463	-0.2839496357803022	-0.008950509550467375	-0.005594984317399944	0.2208915824333822	-9.024866134937966	-45.02982351933482	-9.52081311620146	1.033461445769803	-1.244362012832551	-628.4573485604853	53.97499042191354	0.1648430783170318	0.5631484698463146	-0.5322532230006405	-1.029585762868583	-0.2599237015733212	-0.671568686015155	1.82616959037709	-1.379007116112521	-1.379007116112573	0.4622973425205856	-0.04143977773199013	-0.6914234612761109	-0.4517850064770432	1.736860963842122e-07	1.457276534936225e-07	-1.016059368655822e-06	1.546237733060088e-06	1.337864945398211e-08	3.301820325199002e-07	-7.827375231654448e-07
1.51	-0.107333005935978	0.03976029010476068	0.8197641507322551	0.8164220132980742	-0.2268502722267284	-0.1223752622959997	-0.6179220261947324	0.9223783528492836	0.922378352849258	-0.03093238138124831	0.1744148412796214	0.3022385511636405	0.1355480187833807	0.526582660947699	0.2324838272609072	0.5117230750248906	-2.100777537041326	-0.003377834199556859	-0.1837798200218676	0.8208740197900575	-1.984185867770045	-1.984185867769996	0.5004478608138824	0.0007909770994892476	-0.5308888940892222	-0.2143027159670796	-0.1672730894113252	0.01579000193866521	0.01783052531887598	-0.2803232915289867	-0.006971336598369783	-0.006301712535776186	0.2141145441124372	-10.06185500068113	-44.10791335891802	-9.504503872695567	0.8460223588878445	-1.384882585506587	-623.5286704751441	53.9402246447797	0.1316527267512602	0.5499206269913633	-0.5956982580950948	-0.8924935224348131	-0.2917863425167679	-0.6622184181339399	1.755354307148367	-1.224098832614867	-1.224098832611445	0.5067220465446982	-0.007547967880499534	-0.6477001744701588	-0.4724373945886424	1.642850295958818e-07	1.411330346785368e-07	-9.332781486653776e-07	1.512167732876432e-06	6.961254640437898e-09	3.285698482314986e-07	-7.556120783153848e-07
1.52	-0.1020615760735389	0.04211236139429243	0.8248504856163287	0.7953726224886063	-0.2268982745239576	-0.1242466704840991	-0.6096262475325102	0.9024780336449452	0.9024780336449044	-0.02590410639624784	0.1744219343608689	0.2968983253608572	0.1333825354885232	0.5276265879097046	0.2379062506267833	0.5054349370313022	-2.108836062030296	-0.006232238213550421	-0.1905212043025324	0.838186237367984	-1.995611396374593	-1.995611396374521	0.5051680903571852	0.0006317227143529842	-0.53706770180088	-0.2187531765897449	-0.1597549298844922	0.0139125968821073	0.01799004446226963	-0.2766969472776713	-0.004992163646271921	-0.007008440754152608	0.2073375057914954	-11.10273334564496	-43.18643996533837	-9.486592031402955	0.6564095744948208	-1.537409394730018	-618.6025906783973	53.96840286112811	0.07286672374202915	0.5341382985953289	-0.662486550109126	-0.7119735140310691	-0.2701835556462702	-0.6926964955482389	1.711599245339848	-1.059370156130084	-1.059370156130109	0.414559284425324	-0.03443225937036945	-0.5848782639007675	-0.4025677193931908	1.619182653345246e-07	1.328944148305695e-07	-9.979207374519526e-07	1.407853424912381e-06	1.926312357821243e-08	3.241783902698583e-07	-8.078278764901405e-07
1.53	-0.09678208765213528	0.04451782427596731	0.8298707471745708	0.7742507317703833	-0.226974972179417	-0.1261866396454702	-0.6011604096919406	0.8824713990380805	0.8824713990380713	-0.0208303887312973	0.1744279031771881	0.2914989296677307	0.1311739248599881	0.5281875859290378	0.2431508396827741	0.4985149099779707	-2.115260953409727	-0.009111430930079316	-0.1974760887685526	0.8548629002377097	-2.005443162736844	-2.005443162736754	0.5095439188668852	0.0005577904854289391	-0.54272774835376	-0.2229253174356039	-0.1521694511096497	0.01196349252234475	0.01817340767569675	-0.2732179221513886	-0.003082556369494256	-0.007837104807854104	0.2004639854844783	-12.14383244925237	-42.31591299685311	-9.541042909111226	0.4903107844179064	-1.563949195397106	-613.8915198853141	53.91730123181362	0.03519891063058767	0.5143100432082703	-0.7220678983732687	-0.5655642383846718	-0.2973359247664465	-0.6971502094715147	1.627935231404444	-0.9042594890186573	-0.9042594890160685	0.4441957799791041	0.005671437214028683	-0.5439654106827608	-0.4180688280050892	1.670254475080763e-07	1.207840438851656e-07	-1.219201123064109e-06	1.228904539931663e-06	5.145421025176293e-08	3.168339540304017e-07	-9.443437453787622e-07
